<svg xmlns="http://www.w3.org/2000/svg" width="76.062" height="72.502" viewBox="0 0 76.062 72.502"><defs><style>.a{fill:#b56437;}</style></defs><g transform="translate(0 -10.67)"><g transform="translate(48.762 65.41)"><path class="a" d="M301.233,338.862a8.881,8.881,0,1,0,8.881,8.881A8.986,8.986,0,0,0,301.233,338.862Z" transform="translate(-292.352 -338.862)"/></g><g transform="translate(0 10.67)"><g transform="translate(0 0)"><path class="a" d="M73.271,23.053c-.171,0-.427-.085-.683-.085h-53.8l-.854-5.722a7.647,7.647,0,0,0-7.6-6.576H3.416a3.416,3.416,0,1,0,0,6.832h6.917a.908.908,0,0,1,.854.769l5.295,36.038A9.363,9.363,0,0,0,25.7,62.25H61.23a9.491,9.491,0,0,0,9.223-7.515L76,26.981A3.375,3.375,0,0,0,73.271,23.053Z" transform="translate(0 -10.67)"/></g></g><g transform="translate(18.526 65.41)"><path class="a" d="M128.412,347.316a8.83,8.83,0,0,0-8.8-8.454,8.933,8.933,0,0,0-8.54,9.223,8.753,8.753,0,0,0,8.71,8.454h.171A8.862,8.862,0,0,0,128.412,347.316Z" transform="translate(-111.07 -338.862)"/></g></g></svg>