<svg xmlns="http://www.w3.org/2000/svg" width="16" height="16" viewBox="0 0 16 16"><defs><style>.a{fill:#b56437;}</style></defs><path class="a" d="M19,20A14.722,14.722,0,0,1,4,5,1,1,0,0,1,5,4H7.639a1,1,0,0,1,.989.854,12.417,12.417,0,0,0,1.016,3.4l.1.222a.707.707,0,0,1-.231.872,1.934,1.934,0,0,0-.493,2.676,11.818,11.818,0,0,0,2.957,2.956,1.934,1.934,0,0,0,2.675-.493.707.707,0,0,1,.873-.231l.221.1a12.418,12.418,0,0,0,3.4,1.016A1,1,0,0,1,20,16.36V19a1,1,0,0,1-1,1Z" transform="translate(-4 -4)"/></svg>