<svg xmlns="http://www.w3.org/2000/svg" width="19.211" height="18.312" viewBox="0 0 19.211 18.312"><defs><style>.a{fill:#b56437;}</style></defs><g transform="translate(0 -10.67)"><g transform="translate(12.316 24.496)"><path class="a" d="M294.6,338.862a2.243,2.243,0,1,0,2.243,2.243A2.27,2.27,0,0,0,294.6,338.862Z" transform="translate(-292.352 -338.862)"/></g><g transform="translate(0 10.67)"><g transform="translate(0 0)"><path class="a" d="M18.506,13.8c-.043,0-.108-.022-.173-.022H4.745l-.216-1.445A1.931,1.931,0,0,0,2.61,10.67H.863a.863.863,0,1,0,0,1.726H2.61a.229.229,0,0,1,.216.194l1.337,9.1A2.365,2.365,0,0,0,6.492,23.7h8.973a2.4,2.4,0,0,0,2.329-1.9l1.4-7.01A.853.853,0,0,0,18.506,13.8Z" transform="translate(0 -10.67)"/></g></g><g transform="translate(4.679 24.496)"><path class="a" d="M115.45,341a2.23,2.23,0,0,0-2.222-2.135,2.256,2.256,0,0,0-2.157,2.329,2.211,2.211,0,0,0,2.2,2.135h.043A2.238,2.238,0,0,0,115.45,341Z" transform="translate(-111.07 -338.862)"/></g></g></svg>