<svg xmlns="http://www.w3.org/2000/svg" width="52.441" height="47.881" viewBox="0 0 52.441 47.881"><defs><style>.a{fill:#b4b4b4;fill-rule:evenodd;}</style></defs><g transform="translate(-1 -1)"><path class="a" d="M15.153,6a6.84,6.84,0,0,1,4.837-2h8.371a2.28,2.28,0,0,1,0,4.56H19.989a2.28,2.28,0,0,0-1.612.668l-1.889,1.889a6.84,6.84,0,0,1-4.837,2H7.84A2.28,2.28,0,0,0,5.56,15.4V38.2a2.28,2.28,0,0,0,2.28,2.28H39.761a2.28,2.28,0,0,0,2.28-2.28V22.24a2.28,2.28,0,0,1,4.56,0V38.2a6.84,6.84,0,0,1-6.84,6.84H7.84A6.84,6.84,0,0,1,1,38.2V15.4A6.84,6.84,0,0,1,7.84,8.56h3.811a2.28,2.28,0,0,0,1.612-.668Z" transform="translate(0 3.84)"/><path class="a" d="M6,20.4A11.4,11.4,0,1,1,17.4,31.8,11.4,11.4,0,0,1,6,20.4Zm11.4-6.84a6.84,6.84,0,1,0,6.84,6.84A6.84,6.84,0,0,0,17.4,13.56Z" transform="translate(6.4 10.24)"/><path class="a" d="M16,6.28A2.28,2.28,0,0,1,18.28,4H31.96a2.28,2.28,0,0,1,0,4.56H18.28A2.28,2.28,0,0,1,16,6.28Z" transform="translate(19.201 3.84)"/><path class="a" d="M21.28,1a2.28,2.28,0,0,1,2.28,2.28V16.96a2.28,2.28,0,0,1-4.56,0V3.28A2.28,2.28,0,0,1,21.28,1Z" transform="translate(23.041)"/></g></svg>