<svg xmlns="http://www.w3.org/2000/svg" width="18" height="17.867" viewBox="0 0 18 17.867"><defs><style>.a{fill:none;stroke:#000;stroke-linecap:round;stroke-linejoin:round;stroke-miterlimit:10;stroke-width:32px;}</style></defs><path class="a"/><path class="a"/><path d="M8.33,143.288l-8.086-3.4a.176.176,0,0,0-.244.162v9.1a.562.562,0,0,0,.354.522L8.2,152.807a.176.176,0,0,0,.241-.163V143.45A.176.176,0,0,0,8.33,143.288Z" transform="translate(0 -134.952)"/><path d="M36.745,11.01l7.816-3.291a.176.176,0,0,0,.006-.321L36.915,3.827a.563.563,0,0,0-.476,0L28.787,7.4a.176.176,0,0,0,.006.321l7.816,3.291A.176.176,0,0,0,36.745,11.01Z" transform="translate(-27.677 -3.642)"/><path d="M272,143.45v9.193a.176.176,0,0,0,.241.163l7.843-3.137a.563.563,0,0,0,.354-.522v-9.1a.176.176,0,0,0-.244-.162l-8.086,3.4A.176.176,0,0,0,272,143.45Z" transform="translate(-262.438 -134.952)"/></svg>