<svg xmlns="http://www.w3.org/2000/svg" width="18" height="18.552" viewBox="0 0 18 18.552"><path d="M12.986,20.552H9.609a.928.928,0,0,1-.906-.729l-.378-1.748A7.423,7.423,0,0,1,6.9,17.253L5.2,17.8a.928.928,0,0,1-1.085-.42L2.42,14.452A.933.933,0,0,1,2.6,13.3L3.921,12.1a7.514,7.514,0,0,1,0-1.644L2.6,9.25A.933.933,0,0,1,2.42,8.1L4.109,5.175a.928.928,0,0,1,1.085-.42L6.9,5.3A7.492,7.492,0,0,1,7.6,4.834a7.613,7.613,0,0,1,.722-.358L8.7,2.73A.928.928,0,0,1,9.609,2h3.376a.928.928,0,0,1,.905.73l.382,1.747a7.415,7.415,0,0,1,.76.388A7.06,7.06,0,0,1,15.7,5.3l1.7-.543a.928.928,0,0,1,1.084.42L20.175,8.1A.933.933,0,0,1,20,9.251l-1.322,1.206a7.514,7.514,0,0,1,0,1.644L20,13.307a.933.933,0,0,1,.179,1.149l-1.688,2.925a.928.928,0,0,1-1.084.42l-1.7-.543a7.4,7.4,0,0,1-.672.441,7.591,7.591,0,0,1-.751.381l-.383,1.743A.928.928,0,0,1,12.986,20.552ZM11.294,7.566A3.71,3.71,0,1,0,15,11.276,3.71,3.71,0,0,0,11.294,7.566Z" transform="translate(-2.297 -2)"/></svg>