<svg xmlns="http://www.w3.org/2000/svg" width="17.999" height="18" viewBox="0 0 17.999 18"><g transform="translate(13.159 15.922)"><path d="M44.693,54.078a.693.693,0,0,1,0-1.385h0a.692.692,0,1,1,1.384,0A1.387,1.387,0,0,1,44.693,54.078Z" transform="translate(-44 -52)"/></g><g transform="translate(13.851 9.13)"><path d="M46.693,40.562A.693.693,0,0,1,46,39.87V33.078a.693.693,0,1,1,1.385,0V39.87A.693.693,0,0,1,46.693,40.562Z" transform="translate(-46 -32.385)"/></g><g transform="translate(0.693 16.615)"><path d="M21.159,55.385H8.693a.693.693,0,0,1,0-1.385H21.159a.693.693,0,1,1,0,1.385Z" transform="translate(-8 -54)"/></g><g transform="translate(0 15.922)"><path d="M7.385,54.078A1.387,1.387,0,0,1,6,52.693a.693.693,0,0,1,1.385,0h0a.692.692,0,1,1,0,1.384Z" transform="translate(-6 -52)"/></g><g transform="translate(0 3.456)"><path d="M6.693,29.851A.693.693,0,0,1,6,29.159V16.693a.693.693,0,0,1,1.385,0V29.159A.693.693,0,0,1,6.693,29.851Z" transform="translate(-6 -16)"/></g><g transform="translate(0 2.764)"><path d="M6.692,16.078A.692.692,0,0,1,6,15.385,1.387,1.387,0,0,1,7.385,14a.693.693,0,1,1,0,1.385h0A.692.692,0,0,1,6.692,16.078Z" transform="translate(-6 -14)"/></g><g transform="translate(0.693 2.764)"><path d="M15.485,15.385H8.693a.693.693,0,0,1,0-1.385h6.792a.693.693,0,1,1,0,1.385Z" transform="translate(-8 -14)"/></g><g transform="translate(6.902 0.501)"><path d="M26.624,15.614a.693.693,0,0,1-.49-1.182L32.9,7.668a.692.692,0,1,1,.979.979l-6.764,6.764A.69.69,0,0,1,26.624,15.614Z" transform="translate(-25.931 -7.465)"/></g><g transform="translate(6.233 7.264)"><path d="M24.693,31.5a.678.678,0,0,1-.146-.016.692.692,0,0,1-.532-.822l.669-3.117a.693.693,0,0,1,1.354.29l-.669,3.117a.693.693,0,0,1-.677.547Z" transform="translate(-24 -26.997)"/></g><g transform="translate(9.35 2.949)"><path d="M33.695,22.684a.693.693,0,0,1-.49-1.182l6.764-6.764a.692.692,0,0,1,.979.979l-6.764,6.764A.689.689,0,0,1,33.695,22.684Z" transform="translate(-33.002 -14.535)"/></g><g transform="translate(6.233 9.713)"><path d="M24.691,36.123a.692.692,0,0,1-.145-1.37l3.117-.669a.692.692,0,1,1,.291,1.354l-3.117.669A.7.7,0,0,1,24.691,36.123Z" transform="translate(-23.999 -34.069)"/></g><g transform="translate(12.442 1.725)"><path d="M45.07,14.834a.689.689,0,0,1-.49-.2l-2.449-2.449a.692.692,0,1,1,.979-.979l2.449,2.449a.693.693,0,0,1-.49,1.182Z" transform="translate(-41.929 -11)"/></g><g transform="translate(13.665)"><path d="M48.6,10.353a.693.693,0,0,1-.49-1.183,1.055,1.055,0,0,0,0-1.468,1.08,1.08,0,0,0-1.469,0,.693.693,0,1,1-.98-.979,2.424,2.424,0,0,1,3.428,3.428.688.688,0,0,1-.489.2Z" transform="translate(-45.462 -6.019)"/></g></svg>