<svg xmlns="http://www.w3.org/2000/svg" width="1146.426" height="1146.415" viewBox="0 0 1146.426 1146.415"><defs><style>.a{opacity:0.05;}.b{fill:#fff;}</style></defs><g class="a" transform="matrix(0.966, 0.259, -0.259, 0.966, 242.266, 0.002)"><g transform="translate(-0.001 -0.001)"><path class="b" d="M468.019,936.037A468.018,468.018,0,0,0,798.96,137.079c-182.773-182.773-479.108-182.773-661.881,0s-182.773,479.108,0,661.881A464.94,464.94,0,0,0,468.019,936.037Zm0-3.89A462.589,462.589,0,0,1,141.447,797.4l23.921-23.983a429.226,429.226,0,0,0,140.405,92.875c90.706,88.284,235.395,87.7,325.387-1.31a429.142,429.142,0,0,0,137.181-91.648l26.459,24.3A461.07,461.07,0,0,1,468.019,932.147ZM121.894,576.183c-16.245-8.008-34.529-17.119-51.17-30.515a184.892,184.892,0,0,1-9.61-26.6,98.783,98.783,0,0,0,64.066,24.087,95.243,95.243,0,0,0,25.668-3.515c39.334,6.635,53.645,32.179,53.916,53.874.27,22.881-13.853,41.83-34.7,47.343C180.053,604.93,154.3,592.2,121.894,576.183ZM166.2,640.271a187.976,187.976,0,0,1-91.731-86.8c15.164,11.108,31.2,19.074,45.762,26.209,32.033,15.85,55.393,27.415,45.97,60.593ZM304.775,177.411c28.559,0,40.416-23.879,54.935-53.1,8.071-16.245,17.223-34.633,30.64-51.191a187.2,187.2,0,0,1,26.646-9.631c-24.358,29-28.206,62.569-20.593,89.735a80.893,80.893,0,0,1-9.506,27.311h0c-.333.541-.6,1.04-.915,1.56a55.642,55.642,0,0,1-46.511,27.332c-18.846.166-39.646-9.984-45.554-33.052A62.152,62.152,0,0,0,304.775,177.411Zm-10.65-4.971a187.914,187.914,0,0,1,88.424-95.476c-11.129,15.164-19.137,31.2-26.313,45.762C340.053,155.113,328.259,178.888,294.125,172.44Zm110.847,1.29c.208.4.437.79.666,1.186l.458.728c9.36,16.183,10.671,30.2,11.815,42.642,1.914,20.8,3.619,38.981,40.749,57.764l-3.6.187c-44.8-4.285-69.683-14.249-78.315-31.368C369.59,230.682,373.6,211,388.914,184.837a79.333,79.333,0,0,0,9.922-24.15,88.477,88.477,0,0,0,5.658,12.21h0Zm406.78,188.476C828,370.235,846.365,379.325,862.9,392.7a183.89,183.89,0,0,1,9.631,26.646c-29-24.358-62.569-28.185-89.734-20.572-38.835-6.573-55.871-33.281-55.5-56.994.27-18.721,11.628-39.105,36.173-43.89C753.76,333.563,779.449,346.251,811.752,362.206Zm-44.2-64.066a187.935,187.935,0,0,1,91.523,86.677c-15.143-11.087-31.2-19.054-45.762-26.167C781.383,342.882,758.024,331.316,767.551,298.139ZM573.812,814.124c-8.029,16.245-17.1,34.55-30.494,51.191a187.215,187.215,0,0,1-26.646,9.631c24.358-29,28.206-62.59,20.593-89.755a81.122,81.122,0,0,1,9.444-27.311h0c.354-.6.666-1.165,1.019-1.747a55.559,55.559,0,0,1,46.386-27.145c19.449-.166,41.019,10.608,46.094,35.361-.27.645-.541,1.29-.79,1.934C602.788,755.528,589.953,781.425,573.812,814.124ZM637.9,769.818a188.017,188.017,0,0,1-86.677,91.731c11.108-15.143,19.054-31.2,26.188-45.762,15.746-32.033,27.291-55.392,60.489-45.97ZM528.945,765.1c-.312-.52-.6-1.082-.915-1.6s-.562-.874-.832-1.331c-9.048-15.933-10.4-29.745-11.461-42.038-1.914-20.8-3.6-38.981-40.728-57.785l3.6-.166c44.784,4.285,69.662,14.249,78.294,31.368,7.135,14.165,3.162,33.78-12.085,59.885a79.854,79.854,0,0,0-10.005,24.3,88.664,88.664,0,0,0-5.637-12.252h0Zm-184.357-69.87c5.575,9.485,6.8,18.513,3.453,25.46-3.058,6.24-9.8,10.629-18.513,11.815-10.546,1.435-23.775-4.431-33.718-14.956a54.519,54.519,0,0,1-14.977-39.521,186.5,186.5,0,0,1,3.7-23.775L322.684,616.1c-9.36,25.855,6.719,60.093,21.9,79.126Zm-13.375-87.675.354-.354a192.761,192.761,0,0,0,134.186,55.33c2.33,4.368-2.954,8.924-11.732,15.7-7.717,5.97-15.684,12.127-17.015,19.948-.6,3.64.853,10.047,5.533,16.1a31.2,31.2,0,0,0,9.09,7.946,103.526,103.526,0,0,0-22.569,3.453,85.888,85.888,0,0,0-38.773,21.071,40.187,40.187,0,0,0-3.911-31.763,48.112,48.112,0,0,0-39.168-22.881c-15.892-20.218-33.843-60.322-15.663-84.472ZM99.221,401.623a44.069,44.069,0,0,0-4.992.27c6.24-15.143,25.9-25.627,47.967-25.211,31.2.541,55.268,21.362,64.482,55.684a94.414,94.414,0,0,1,3.058,33.281c-.187,1.082-.333,2.2-.437,3.391h0a79.044,79.044,0,0,1-4.16,16.641c-16.641,1.934-52.127-2.371-63.068-20.8a46.157,46.157,0,0,0-42.85-63.193Zm114.03,66.563a29,29,0,0,1,10.879-20.2c5.45-4.16,10.816-5.159,13.063-4.784,6.24,1.061,12.272,8.757,17.514,15.559s10.754,13.895,16.641,13.895h.291c-18.346,38.086-35.112,39.646-56.162,41.6a120.415,120.415,0,0,0-28.123,5.055,81.831,81.831,0,0,0,25.9-51.108Zm2.663,49.922c20.8-1.935,38.981-3.619,57.764-40.749,0,1.206.1,2.413.187,3.6-4.285,44.8-14.269,69.683-31.368,78.294-14.436,7.28-34.508,3.037-61.321-12.917a79.043,79.043,0,0,0-22.881-9.173,88.837,88.837,0,0,0,12.273-5.658h0c.437-.291.874-.541,1.31-.811l.77-.27,1.123-.707c15.913-9.173,29.808-10.463,42.142-11.586Zm57.6-49.922c-4.368,2.33-8.924-2.954-15.725-11.732-5.949-7.717-12.127-15.684-19.927-16.994-3.661-.624-10.047.853-16.1,5.512a31.618,31.618,0,0,0-7.967,9.09,102.278,102.278,0,0,0-3.453-22.569,85.283,85.283,0,0,0-22.174-39.771,43.954,43.954,0,0,0,12.48,1.872,39.147,39.147,0,0,0,20.177-5.575,49.048,49.048,0,0,0,23.318-39.937c20.655-16.245,59.365-33.406,83.557-15.268l1.206,1.206a192.7,192.7,0,0,0-55.392,134.1Zm217.6-244.056a31.577,31.577,0,0,0-9.173-8.008,102.63,102.63,0,0,0,22.652-3.391,85.283,85.283,0,0,0,39.521-22.007,39.9,39.9,0,0,0,4.16,30.827,49.048,49.048,0,0,0,39.938,23.318c15.871,20.2,33.822,60.322,15.642,84.451h0l-1.872,1.872a192.719,192.719,0,0,0-134.165-55.33c-2.33-4.368,2.954-8.924,11.732-15.725,7.7-5.949,15.663-12.127,16.994-19.948C497.265,236.569,495.788,230.183,491.108,224.13Zm99.844,17.743c-5.575-9.464-6.8-18.492-3.432-25.419,3.058-6.24,9.8-10.629,18.513-11.815,10.255-1.394,22.59,4.015,32.137,14.145a54.706,54.706,0,0,1,14.977,38.377,184.419,184.419,0,0,1-3.931,27.041L613.167,320.25c8.653-25.814-7.239-59.553-22.257-78.377ZM834.716,536.662a44.236,44.236,0,0,0,4.711-.251c-6.354,15.1-25.907,25.5-47.977,25.17a63.443,63.443,0,0,1-29.995-7.842c-1.061-.707-2.08-1.394-3.286-2.08l-.437-.229c-14.436-9.423-25.211-25.086-30.66-45.575a93.9,93.9,0,0,1-3.079-33.281c.187-1.1.354-2.226.458-3.411h0a78.764,78.764,0,0,1,3.827-15.809c17.41-1.706,53,3.058,62.777,22.174a46.136,46.136,0,0,0,43.682,60.988ZM720.312,470.1a29,29,0,0,1-10.879,20.177c-5.429,4.16-10.8,5.159-13.063,4.784-6.24-1.061-12.252-8.757-17.514-15.538s-10.941-14.124-16.973-13.874c18.346-38.107,35.112-39.667,56.162-41.6a120.418,120.418,0,0,0,28.123-5.055A81.768,81.768,0,0,0,720.4,470.224Zm-2.642-49.922c-20.8,1.934-38.981,3.619-57.785,40.749a35.13,35.13,0,0,0-.187-3.619c4.306-44.784,14.269-69.662,31.388-78.294,14.561-7.363,34.987-2.933,62.4,13.521h0a79.813,79.813,0,0,0,21.82,8.653,87.655,87.655,0,0,0-12.231,5.658h0l-.582.333-1.414.811c-.437.25-.853.52-1.269.79-15.934,9.09-29.7,10.38-42.059,11.5ZM660.052,470.1c4.389-2.33,8.944,2.954,15.725,11.732,5.97,7.717,12.127,15.684,19.948,16.994a8.689,8.689,0,0,0,1.706.146,25.085,25.085,0,0,0,14.394-5.679,31.474,31.474,0,0,0,7.946-9.069,102.271,102.271,0,0,0,3.453,22.569,85.077,85.077,0,0,0,22.34,39.937,41.6,41.6,0,0,0-31.388,4.867A45.99,45.99,0,0,0,691.3,589.038c-18.617,14.56-59.074,36.63-83.869,18.1l-2.766-2.766a192.615,192.615,0,0,0,55.476-134.082ZM602,601.519,575.539,575.06a151.493,151.493,0,0,0,43.2-104.15l37.441-1.227a188.913,188.913,0,0,1-54.1,132.022Zm-72.345-66.833,40.4,40.374a147.686,147.686,0,0,1-93.354,41.726c10.13-2.85,14.415-10.026,17.993-16.058s6.115-10.4,12.9-10.4c18.908,0,24.046-7.239,26.937-20.572,1.893-8.133.645-22.257-4.784-34.883Zm-1.31-44.014c17.306,8.508,35.2,17.285,55.954,20.988-.354,15.164-5.762,18.991-17.431,21.508-11.17,2.392-34.425-1.31-47.488-14.207h0l-.1-.1-21.321-21.321a133.124,133.124,0,0,1-2.912-21.4,267.607,267.607,0,0,1,33.3,14.54Zm-33.448-18.721v-.811H611.981c-.624,13.895-8.112,18.346-15.351,22.631-5.491,3.245-11.128,6.594-12.106,13.957-20.031-3.661-37.441-12.252-54.456-20.572a256.081,256.081,0,0,0-35.216-15.185ZM532.5,532.107a70.578,70.578,0,0,0,26.833,5.637,39.519,39.519,0,0,0,8.32-.77c13.333-2.87,20.551-8.029,20.551-26.916,0-6.8,4.576-9.506,10.4-12.917s13.188-7.842,16.058-17.93A147.685,147.685,0,0,1,572.938,572.5Zm2.08-163.7c-2.891-13.333-8.029-20.572-26.937-20.572-6.781,0-9.485-4.555-12.9-10.4s-7.863-13.208-17.993-16.058A147.686,147.686,0,0,1,570.11,363.1l-40.374,40.437C535.164,390.932,536.412,376.808,534.582,368.4Zm33.052,33.052c-8.32-1.81-22.486-.582-35.112,4.847l40.354-40.374A147.685,147.685,0,0,1,614.6,459.221c-2.871-10.109-10.026-14.373-16.058-17.93s-10.4-6.115-10.4-12.917C588.185,409.444,580.968,404.306,567.634,401.457Zm16.641,25.315c-20.8,3.7-38.648,12.48-55.975,20.988a266.029,266.029,0,0,1-33.281,14.561,132.982,132.982,0,0,1,2.912-21.425L509.2,429.642h0l10.4-10.4c13.084-12.813,36.214-16.474,47.322-14.082,11.565,2.538,16.973,6.407,17.327,21.591ZM572.9,360.438a151.492,151.492,0,0,0-104.108-43.2V279.793a188.851,188.851,0,0,1,130.567,54.082ZM491.42,339.47c3.224,5.491,6.594,11.108,13.936,12.085-3.661,20.052-12.231,37.545-20.572,54.477A258.238,258.238,0,0,0,469.6,441.165h-.832V324.119C482.684,324.743,487.135,332.232,491.42,339.47ZM488.279,407.7c8.508-17.306,17.285-35.195,21.009-55.975,15.164.354,18.991,5.783,21.508,17.452,2.392,11.149-1.31,34.425-14.228,47.488l-.125.125L495.06,438.17a131.5,131.5,0,0,1-21.342,2.808A270.28,270.28,0,0,1,488.279,407.7Zm6.573,58.721a258.828,258.828,0,0,0,35.153-15.226c16.932-8.32,34.425-16.911,54.456-20.572.978,7.363,6.615,10.712,12.106,13.957,7.239,4.285,14.727,8.736,15.351,22.652H494.831c0-.229,0-.5.021-.77Zm.208,33.843,21.321,21.321.146.125c12.9,13.063,16.641,36.339,14.207,47.488-2.517,11.669-6.344,17.1-21.508,17.452-3.723-20.8-12.48-38.669-21.009-55.975a270.287,270.287,0,0,1-14.561-33.281,129.54,129.54,0,0,1,21.4,2.871ZM484.66,532.4c8.32,16.911,16.911,34.4,20.572,54.436-7.343.978-10.712,6.615-13.937,12.106-4.285,7.239-8.736,14.706-22.652,15.351V497.14h.811a263.578,263.578,0,0,0,15.33,35.361Zm88.091,45.6,26.459,26.459a188.85,188.85,0,0,1-130.567,54.082V621.092a151.491,151.491,0,0,0,104.233-43.1Zm45.928-110.785a151.41,151.41,0,0,0-43.183-104l26.459-26.459a188.809,188.809,0,0,1,54.082,129.277ZM493.417,442.5c-.437,2.184-.832,4.41-1.165,6.615a135.488,135.488,0,0,0-1.5,20.094h0a134.5,134.5,0,0,0,2.667,26.666,135.519,135.519,0,0,0-53.441-.02,135.39,135.39,0,0,0,0-53.437,136.309,136.309,0,0,0,53.562.083Zm-88.174,48.175a267.374,267.374,0,0,1,33.281-14.561,132.056,132.056,0,0,1-2.891,21.4l-5.8,5.866h0l-2.351,2.35-13.042,13.021-.1.125c-13.063,12.917-36.318,16.641-47.488,14.228-11.69-2.517-17.1-6.24-17.452-21.508,20.863-3.64,38.669-12.377,55.975-20.926ZM349.08,507.749c-.978-7.363-6.615-10.712-12.085-13.957-7.259-4.285-14.727-8.736-15.372-22.631H438.9v.811a257.415,257.415,0,0,0-35.174,15.205c-17.015,8.32-34.509,16.911-54.54,20.572ZM399,570.006c2.87,13.333,8.008,20.572,26.916,20.572,6.781,0,9.485,4.555,12.917,10.4s7.842,13.208,17.972,16.058a147.687,147.687,0,0,1-93.333-41.726l40.374-40.374c-5.367,12.543-6.552,26.687-4.784,35.008Zm25.335,16.578c-15.164-.354-18.97-5.783-21.487-17.452-2.392-11.17,1.29-34.425,14.186-47.488l.146-.125L438.5,500.2a130.694,130.694,0,0,1,21.425-2.912,268.725,268.725,0,0,1-14.561,33.281C436.818,547.977,428.082,565.783,424.338,586.584ZM321.707,467.208c.645-13.916,8.112-18.367,15.372-22.652,5.471-3.245,11.108-6.594,12.085-13.957,20.031,3.661,37.441,12.252,54.457,20.572A260.179,260.179,0,0,0,438.9,466.459q0,.406,0,.811Zm27.748-40.457c.354-15.185,5.762-18.991,17.452-21.508,11.17-2.392,34.425,1.29,47.488,14.228l.125.125,21.258,21.383a129.842,129.842,0,0,1,2.912,21.4,271.665,271.665,0,0,1-33.281-14.561C388.061,439.231,370.256,430.453,349.455,426.751Zm89.152,11.42-21.342-21.342-.125-.125h0c-12.917-13.042-16.641-36.339-14.207-47.488,2.517-11.69,6.24-17.1,21.487-17.452,3.723,20.8,12.48,38.669,21.009,55.975A267.37,267.37,0,0,1,459.99,441.02a131.754,131.754,0,0,1-21.446-2.85Zm10.4-32.137c-8.32-16.932-16.911-34.425-20.572-54.477,7.343-.957,10.712-6.594,13.957-12.085,4.285-7.239,8.736-14.727,22.631-15.351V441.186h-.811a258.41,258.41,0,0,0-15.351-35.153ZM438.9,337.494c-3.432,5.783-6.136,10.4-12.917,10.4-18.908,0-24.046,7.239-26.916,20.572-1.81,8.32-.582,22.506,4.847,35.133l-40.374-40.374A147.686,147.686,0,0,1,456.891,321.5C446.74,324.286,442.455,331.462,438.9,337.494Zm-37.753,68.788c-12.605-5.429-26.708-6.656-35.112-4.847-13.333,2.871-20.572,8.008-20.572,26.916,0,6.8-4.576,9.485-10.4,12.917s-13.229,7.842-16.079,17.993a147.685,147.685,0,0,1,41.726-93.354ZM335.1,497.14c5.783,3.411,10.4,6.115,10.4,12.917,0,18.887,7.218,24.046,20.572,26.916a39.517,39.517,0,0,0,8.32.77,70.471,70.471,0,0,0,26.812-5.637l-40.4,40.4a147.686,147.686,0,0,1-41.726-93.354C321.894,489.278,329.07,493.563,335.1,497.14Zm25.668,80.853a151.513,151.513,0,0,0,104.108,43.2v37.441a188.83,188.83,0,0,1-130.546-54.082Zm81.477,20.946c-3.245-5.491-6.615-11.128-13.957-12.106,3.661-20.031,12.252-37.441,20.572-54.456a259.522,259.522,0,0,0,15.205-35.133h.811V614.311C450.983,613.625,446.532,606.178,442.247,598.939Zm22.631-281.726A151.6,151.6,0,0,0,360.77,360.4l-26.438-26.438a188.83,188.83,0,0,1,130.546-54.082ZM358.025,363.162a151.471,151.471,0,0,0-43.182,104H277.4A188.664,188.664,0,0,1,331.483,336.6Zm-43.182,108a151.451,151.451,0,0,0,43.182,104l-26.459,26.542A188.726,188.726,0,0,1,277.484,471.16ZM292.981,720.208c10.775,11.42,25.335,17.764,37.067,16.141,10.026-1.352,17.847-6.448,21.487-13.957s2.87-16.641-1.955-26.126a44.243,44.243,0,0,1,33.448,20.8c6.885,11.649,6.594,25.585-.749,39.293-1.144,1.643-2.2,3.328-3.2,5.075-8.778,12-23.484,18.409-41.186,17.681-22.09-.894-41.934-12.48-49.506-29.017a185.123,185.123,0,0,1-8.32-50.983A58.887,58.887,0,0,0,292.981,720.208Zm44.763,62.777h2.829A52.812,52.812,0,0,0,374.27,772a69.247,69.247,0,0,0-3.786,21.716c-.416,24.67,12.085,46.511,29.849,52.439a46.3,46.3,0,0,0,21.529,29.974,187.478,187.478,0,0,1-128.57-112.1c10.546,11.024,26.854,18.242,44.451,18.95Zm65.439,53.541a42.309,42.309,0,1,1,42.33,42.309,42.309,42.309,0,0,1-42.33-42.309Zm42.309-46.094a46.24,46.24,0,0,0-46.115,46.094,49.009,49.009,0,0,0,.312,5.283c-15.143-6.24-25.606-25.9-25.231-47.967a63.171,63.171,0,0,1,8.2-30.6,48.351,48.351,0,0,0,2.808-4.431.745.745,0,0,0,0-.187c9.527-13.687,24.815-23.921,44.6-29.121a95.1,95.1,0,0,1,33.281-3.079c1.082.187,2.184.354,3.37.458h0a78.085,78.085,0,0,1,28.352,9.464c2.08,19.49-6.7,46.989-25.19,60.988a45.763,45.763,0,0,0-24.378-6.906Zm20.3-67.561a29.121,29.121,0,0,1-20.177-10.858c-4.16-5.45-5.159-10.816-4.763-13.084,1.061-6.24,8.757-12.252,15.538-17.514s14.124-10.941,13.874-16.974c38.107,18.346,39.667,35.112,41.6,56.162a121.253,121.253,0,0,0,5.034,28.1,81.831,81.831,0,0,0-51.108-25.938Zm128.3,2.33a58.72,58.72,0,0,0-37.857,14.831c9.028-19.885,10.4-35.756,4.16-48.133-8.071-16.037-28.705-26.167-64.482-31.451A192.948,192.948,0,0,0,602,607.3l47.051,47.051a188.08,188.08,0,0,1,4.451,40.666,186.039,186.039,0,0,1-11,63.193c-6.531-20.073-25.585-33.385-48.4-33.115ZM651.9,651.628l-35.361-35.465a46.406,46.406,0,0,0,14.02,2.08c23.734,0,50.109-15.33,63.983-26.417,9.464-5.575,18.492-6.8,25.439-3.432,6.24,3.058,10.609,9.8,11.794,18.492,1.435,10.4-4.431,23.588-14.935,33.51a54.768,54.768,0,0,1-38.045,15.143,189.864,189.864,0,0,1-26.9-4.015Zm67.5-8.32c11.4-10.754,17.722-25.211,16.141-36.859-1.373-10.005-6.448-17.847-13.957-21.466s-16.537-2.871-26.084,1.914a43.058,43.058,0,0,1,20.8-31.576c12.169-7.176,26.022-7.3,39.147-.4,1.394.915,2.829,1.747,4.285,2.559,12.48,8.466,19.033,22.881,18.326,40.416-.874,21.716-13.084,42.122-29.745,49.755a185.445,185.445,0,0,1-49.381,8.32A59.221,59.221,0,0,0,719.4,643.12Zm62.4-45.263c.582-14.145-3.349-26.5-11.066-35.694a69.851,69.851,0,0,0,20.572,3.37h1.227c24.108,0,45.3-12.335,51.17-29.745A46.3,46.3,0,0,0,873.385,515.8a187.561,187.561,0,0,1-111.076,126.76,66.188,66.188,0,0,0,19.574-44.7Zm52.834-65.023a83.159,83.159,0,1,0,.083-.187Zm0-88.507A46.3,46.3,0,0,0,792.7,471.347c-12.023-18.013-44.6-22.881-63.026-21.633A81.518,81.518,0,0,1,761.643,412.4c.915-.52,1.83-1.082,2.766-1.643,28.975-16.537,73.635-18.076,109.766,15.476a186.83,186.83,0,0,1,5.034,43.162c0,2.871,0,5.72-.187,8.57a46.3,46.3,0,0,0-44.306-33.635ZM723.307,341.9a56.432,56.432,0,0,0,14.706,38.315c-20.156-9.235-36.193-10.671-48.695-4.389-16.017,8.071-26.167,28.726-31.451,64.482a192.843,192.843,0,0,0-53.125-106.084l47.051-47.051A186.708,186.708,0,0,1,759.313,295.1c-24.3,6.032-35.611,27.124-35.923,46.615Zm-82.35-125.782c-10.4-11.024-24-16.911-35.507-15.33-10.026,1.352-17.847,6.448-21.487,13.957s-2.85,16.641,1.955,26.1a45.075,45.075,0,0,1-34.2-21.279c-4.847-8.32-8.632-21.55.478-38.689.957-1.435,1.851-2.933,2.683-4.431,8.549-12.48,23.13-18.991,40.686-18.3,21.591.874,41.872,12.959,49.464,29.433a186.186,186.186,0,0,1,8.32,48.778A58.033,58.033,0,0,0,640.957,216.122ZM595.736,154.26c-14.269-.562-26.729,3.37-36.006,11.108a69.64,69.64,0,0,0,3.432-20.8c.437-24.691-12.106-46.552-29.87-52.46a46.448,46.448,0,0,0-21.945-30.078A187.582,187.582,0,0,1,639.9,173.272a65.148,65.148,0,0,0-44.16-19.012Zm-65.314-52.231a42.309,42.309,0,1,1-42.309-42.309A42.309,42.309,0,0,1,530.422,102.029Zm-42.309,46.178A46.074,46.074,0,0,0,533.979,96.6c15.164,6.24,25.647,25.876,25.252,47.967a63.277,63.277,0,0,1-7.842,30.161c-.77,1.144-1.5,2.309-2.184,3.515,0,.166-.146.333-.229.478-9.464,14.269-24.961,24.961-45.387,30.328a98.637,98.637,0,0,1-25.315,3.453,83.208,83.208,0,0,1-8.32-.458c-.957-.146-1.934-.291-2.954-.374h0a79.041,79.041,0,0,1-16.953-4.16c-1.622-17.306,3.078-52.127,21.633-62.257a46.073,46.073,0,0,0,16.474,2.954Zm-20.572,67.374a29.121,29.121,0,0,1,20.447,10.92c4.16,5.45,5.159,10.8,4.784,13.063-1.082,6.24-8.778,12.272-15.559,17.514s-14.1,10.941-13.853,16.994c-38.107-18.346-39.667-35.112-41.6-56.162a120.082,120.082,0,0,0-5.075-28.206,81.706,81.706,0,0,0,50.9,25.876ZM338.8,213.314h.707a58.741,58.741,0,0,0,37.878-14.852c-9.028,19.906-10.4,35.777-4.16,48.154,8.071,16.037,28.726,26.167,64.482,31.451a192.8,192.8,0,0,0-106.084,53.146l-47.051-47.051A186.812,186.812,0,0,1,291.129,180.3c6.511,19.761,25.252,33.011,47.717,33.011Zm-57.077,73.593,36.755,36.755c-25.606-8.674-58.908,6.947-77.462,21.758-9.464,5.554-18.513,6.781-25.439,3.432-6.24-3.058-10.608-9.8-11.794-18.492-1.414-10.276,4.015-22.59,14.124-32.158a55.06,55.06,0,0,1,41.6-14.852c2.08.208,4.16.437,6.24.707l1.768.291h0q7.051.978,14.249,2.559Zm-66.563,8.466c-11.024,10.4-16.89,24-15.33,35.507,1.373,10.005,6.448,17.826,13.957,21.466s16.641,2.871,26.126-1.955a45.1,45.1,0,0,1-21.279,34.217c-8.32,4.93-21.986,8.778-39.521-.894-14.977-8.32-23.443-24.961-22.652-44.534.874-21.4,12.231-40.666,28.331-48.091a186.125,186.125,0,0,1,51.69-8.591,58.7,58.7,0,0,0-21.2,12.876ZM152.7,339.054c-.6,14.893,3.827,28.227,12.21,37.941a69.681,69.681,0,0,0-22.652-4.16c-24.607-.458-46.469,12.064-52.418,29.787a46.2,46.2,0,0,0-29.808,20.8,187.519,187.519,0,0,1,110.91-127.3C160.313,306.4,153.387,322.1,152.7,339.054ZM99.221,405.617A42.288,42.288,0,0,1,138.2,464.3l-.686.333.27.52a42.267,42.267,0,1,1-38.565-59.532Zm0,88.487a46.261,46.261,0,0,0,41-24.961c11.274,15.517,38.128,20.8,56.6,20.8a53.13,53.13,0,0,0,6.719-.27,81.58,81.58,0,0,1-31.721,36.589L169.4,527.7c-28.975,16.641-73.78,18.3-110.015-15.351A186.647,186.647,0,0,1,54.354,469.2c0-3.141,0-6.24.229-9.4a46.282,46.282,0,0,0,44.639,34.259ZM208.654,593.51a54.935,54.935,0,0,0-13.25-35.153c12.023,5.533,22.569,8.32,31.784,8.32a37.067,37.067,0,0,0,17.057-3.848c16.017-8.071,26.167-28.705,31.451-64.482A192.989,192.989,0,0,0,328.82,604.431L281.769,651.5a189.29,189.29,0,0,1-40.666,4.431,185.75,185.75,0,0,1-66.75-12.335c20.759-6.989,34.571-26.687,34.3-50.13ZM284.7,751.451h0A191.014,191.014,0,0,0,464.837,885.512v42.641C339.868,926.43,239.341,824.865,238.9,699.886l40.645-40.645c-.582,3-1.061,5.991-1.5,9.007h0a60.507,60.507,0,0,0-1.1,9.568c-.5,5.7-.77,11.4-.77,17.119a190.68,190.68,0,0,0,8.528,56.474ZM456.475,881.435a46.178,46.178,0,0,0,16.745-81.789c18.721-14.748,27.041-41,25.98-60.718a82.828,82.828,0,0,1,24.586,25.148c.562,1.019,1.186,2.08,1.81,3.058,16.412,29,17.847,73.51-15.621,109.558a186.642,186.642,0,0,1-43.141,5.034c-3.474-.042-6.927-.145-10.359-.333Zm12.293,4.16A190.743,190.743,0,0,0,654.124,659.283l42.142,42.142.312-.312c-1.056,125.268-102.54,226.455-227.81,227.145ZM700.489,701.342a231.784,231.784,0,0,0,154.9-60.926A428.329,428.329,0,0,1,638.17,857.722,232.011,232.011,0,0,0,700.489,701.3Zm-1.934-3.869h-.749L656.89,656.5c3.474.666,6.989,1.227,10.5,1.706h0a61.824,61.824,0,0,0,11.17,1.123c4.639.333,9.319.52,13.978.52a190.179,190.179,0,0,0,57.057-8.736h.1A190.951,190.951,0,0,0,883.141,471.139l44.222-.562c-1.231,125.537-103.266,226.7-228.809,226.854Zm184.607-230.2A190.6,190.6,0,0,0,656.89,281.915l42.121-42.142h0c125.429.359,227.25,101.513,228.434,226.937ZM700.489,235.841A231.825,231.825,0,0,0,640.167,81.582,429.016,429.016,0,0,1,854.415,295.934,231.825,231.825,0,0,0,700.489,235.841Zm-3.869,1.539-.354-.354-42.142,42.142c.645-3.391,1.186-6.823,1.643-10.255h0a64.748,64.748,0,0,0,1.186-11.565q.5-6.927.5-13.874a189.746,189.746,0,0,0-8.778-57.2h0a.515.515,0,0,1,0-.146A190.993,190.993,0,0,0,468.831,52.856l.853-43.931C595.106,10.131,696.25,111.952,696.62,237.38ZM477.692,57.058a46.157,46.157,0,0,0-10.4,86.178c-17.66,12.148-22.527,44.16-21.342,62.527a81.5,81.5,0,0,1-36.526-32.054c-.374-.645-.77-1.29-1.165-1.934C391.618,142.8,389.975,97.994,423.63,61.759a186.645,186.645,0,0,1,43.141-5.034C470.474,56.725,474.093,56.85,477.692,57.058ZM464.92,52.9A190.868,190.868,0,0,0,276.174,243.537a193.3,193.3,0,0,0,3.349,35.673L238.9,238.566v-.749C239.063,112.271,340.233,10.239,465.773,9.008ZM235.05,235.841A231.908,231.908,0,0,0,77.942,298.8,428.2,428.2,0,0,1,296.6,80.209,231.929,231.929,0,0,0,235.05,235.841Zm-.333,3.911h0l42.122,42.142q-5.491-1.061-11.045-1.768c-1.934-.312-3.848-.541-5.783-.666-6.24-.6-12.48-.936-18.846-.936a190.35,190.35,0,0,0-57.473,8.861h-.166a190.972,190.972,0,0,0-132.979,179.8l-42.392.146c.82-124.936,101.59-226.178,226.521-227.581ZM50.485,471.16A190.951,190.951,0,0,0,167.594,645.1v.333l.458-.1a189.623,189.623,0,0,0,72.99,14.561,191.533,191.533,0,0,0,35.673-3.37L235.8,697.431C110.979,696.66,9.743,596.118,8.114,471.306ZM235.05,701.3a231.888,231.888,0,0,0,63.567,157.774A427.643,427.643,0,0,1,76.964,637.463,232.012,232.012,0,0,0,235.05,701.3Zm697.1-233.281A460.967,460.967,0,0,1,797.5,794.862l-26.458-24.3A429.329,429.329,0,0,0,862.569,633.51a232.282,232.282,0,0,0-.894-330.733,429.1,429.1,0,0,0-90.712-134.935l26.458-26.4A462.672,462.672,0,0,1,932.147,468.019ZM468.019,3.891A462.672,462.672,0,0,1,794.592,138.618l-26.417,26.438A429.453,429.453,0,0,0,633.24,74.343a232.324,232.324,0,0,0-329.8-1.31,429.307,429.307,0,0,0-138.117,92l-25.252-25.127A462.651,462.651,0,0,1,468.019,3.891Zm-330.733,138.8,25.356,25.086A429.39,429.39,0,0,0,70.724,305.919c-88.236,89.955-88.679,233.85-1,324.347a429.059,429.059,0,0,0,92.9,140.364l-24,23.962C-40.5,614.417-41.094,323.6,137.287,142.695Z" transform="translate(0.001 0.001)"/></g></g></svg>