<svg xmlns="http://www.w3.org/2000/svg" width="1076.073" height="1076.062" viewBox="0 0 1076.073 1076.062"><defs><style>.a{opacity:0.05;}.b{fill:#fff;}</style></defs><g class="a" transform="matrix(0.966, -0.259, 0.259, 0.966, 0.009, 227.4)"><g transform="translate(-0.009 -0.001)"><path class="b" d="M439.305,0A439.3,439.3,0,0,0,128.674,749.929c171.557,171.557,449.706,171.557,621.263,0s171.557-449.706,0-621.263A436.407,436.407,0,0,0,439.305,0Zm1.835,3.671A434.24,434.24,0,0,1,746.012,130.228L721.841,154.4h0c-.449.43-.976.84-1.464,1.25a398.14,398.14,0,0,0-279.2-115.838ZM642.358,173.533c31.59-1.464,57.694-2.675,73.411-10.524-7.81,15.737-9.059,42-10.5,73.743-3.182,70.463-7.575,166.738-97.5,199.948A168.69,168.69,0,0,0,442.8,270.842C476.4,181.225,572.227,176.774,642.358,173.533Zm-67.222,1.738L443.425,43.54A394.508,394.508,0,0,1,717.351,157.874c-14.468,9.176-42.8,10.5-75.149,12.007-20.852.957-43.949,2.031-67.047,5.389Zm127.845,133L834.028,439.3,702.883,570.442c-8.376-53.907-29.794-107.071-91.647-131.145C673.187,415.419,694.624,362.235,703,308.27ZM331.921,476.823c-12.964-16.205-28.681-32.235-46.175-37.526,17.572-5.291,33.191-21.321,46.175-37.526a34.3,34.3,0,0,0,8.766,25.069A42.8,42.8,0,0,0,359.2,439.259h0a42.817,42.817,0,0,0-18.529,12.417,34.382,34.382,0,0,0-8.747,25.147Zm11.519-22.668c6.873-7.927,17.377-13.042,26.768-13.042h42.953a26.963,26.963,0,0,0,6.619,15.971l-30.458,30.4h0a37.1,37.1,0,0,1-25.5,9.762,30.751,30.751,0,0,1-25.382-11.929l-2.3-3.026c-.176-1.269-.332-2.538-.508-3.768a30.438,30.438,0,0,1,7.712-24.366Zm26.768-16.693c-9.391,0-19.9-5.115-26.768-13.023a30.458,30.458,0,0,1-7.693-24.425c.176-1.25.332-2.5.508-3.768l2.3-3.026a30.751,30.751,0,0,1,25.382-11.929,36.979,36.979,0,0,1,25.5,9.762h0l30.341,30.438a26.963,26.963,0,0,0-6.619,15.971ZM391.9,388.534h0c-6.638-6.658-10.465-17.728-9.762-28.174a30.575,30.575,0,0,1,11.832-22.707c1.015-.742,1.952-1.523,3.046-2.3l3.768-.508a29.174,29.174,0,0,1,4.1-.293c18.782,0,33.348,18.685,33.348,34.773v42.953a26.963,26.963,0,0,0-15.971,6.619Zm-13.355-28.427a42.8,42.8,0,0,0,4.315,21.887h0a42.954,42.954,0,0,0-18.978-4.412,34.577,34.577,0,0,0-26.807,11.558c2.284-20.6,2.48-42.953-6.111-59.081,9.294,4.979,21.477,7.419,37.1,7.419a206.03,206.03,0,0,0,22.2-1.347A34.226,34.226,0,0,0,378.545,360.107Zm-45.9,34.734c-15.619,20.383-35.964,42.094-58.143,42.6a164.3,164.3,0,0,1,47.385-113.71c11.988,12.788,15.4,34.91,10.758,71.108Zm0,88.914c4.647,36.2,1.289,58.319-10.758,71.107A164.3,164.3,0,0,1,274.5,441.25C296.778,441.641,316.946,463.371,332.644,483.754Zm4.373,5.623a34.578,34.578,0,0,0,26.807,11.578,42.954,42.954,0,0,0,18.978-4.413h0a42.72,42.72,0,0,0-4.315,21.887,34.324,34.324,0,0,0,11.539,23.917,200.946,200.946,0,0,0-22.2-1.367c-15.463,0-27.685,2.441-36.979,7.439,8.649-16.029,8.454-38.424,6.17-59.041Zm45.16,28.837c-.722-10.445,3.085-21.477,9.762-28.154h0l30.4-30.4a26.866,26.866,0,0,0,15.971,6.638v42.953c0,16.088-14.565,34.773-33.348,34.773a29.173,29.173,0,0,1-4.1-.293c-1.289-.2-2.538-.351-3.768-.508-1.015-.781-1.952-1.562-3.046-2.3a30.575,30.575,0,0,1-11.871-22.707Zm34.48-78.917a23.429,23.429,0,1,1,23.429,23.429A23.429,23.429,0,0,1,416.657,439.3Zm123,12.456a42.583,42.583,0,0,0-18.529-12.417h0A42.953,42.953,0,0,0,539.66,426.9a34.363,34.363,0,0,0,8.747-25.05c12.964,16.205,28.681,32.215,46.175,37.526-17.572,5.291-33.191,21.321-46.175,37.526a34.206,34.206,0,0,0-8.786-25.147Zm-29.54-10.641c9.391,0,19.915,5.115,26.787,13.042a30.477,30.477,0,0,1,7.693,24.405c-.2,1.25-.351,2.519-.527,3.788l-2.3,3.026A30.712,30.712,0,0,1,516.387,497.3a37.1,37.1,0,0,1-25.479-9.762h0l-30.4-30.38a26.885,26.885,0,0,0,6.638-15.99Zm-49.592-19.622,30.38-30.38h0a37.1,37.1,0,0,1,25.479-9.762,30.712,30.712,0,0,1,25.382,11.929l2.3,3.026c.176,1.269.332,2.519.527,3.768a30.536,30.536,0,0,1-7.673,24.366c-6.872,7.907-17.4,13.023-26.787,13.023H467.186a26.963,26.963,0,0,0-6.7-15.971Zm87.039-26.748c-3.241-24.952-4.315-53.907,9.977-70.17A164.141,164.141,0,0,1,604.11,437.345c-17.142-1.113-34.831-14.428-56.581-42.6Zm-4.354-5.545a34.519,34.519,0,0,0-26.807-11.558,42.954,42.954,0,0,0-18.978,4.412h0a42.952,42.952,0,0,0,4.315-21.906,34.363,34.363,0,0,0-11.675-23.956,205.433,205.433,0,0,0,22.2,1.347c15.463,0,27.685-2.441,37-7.419-8.571,16.088-8.435,38.482-6.092,59.081Zm-45.16-28.837c.742,10.426-3.046,21.477-9.665,28.1l-30.458,30.458A26.924,26.924,0,0,0,441.96,412.3V369.342c0-16.088,14.565-34.773,33.348-34.773a29.28,29.28,0,0,1,4.12.293l3.749.508,3.046,2.3a30.5,30.5,0,0,1,11.793,22.687ZM441.96,466.3a26.925,26.925,0,0,0,15.971-6.619l30.477,30.477c6.6,6.638,10.387,17.572,9.645,28.056a30.458,30.458,0,0,1-11.89,22.726l-3.026,2.3c-1.25.156-2.5.312-3.768.508a29.174,29.174,0,0,1-4.1.293c-18.782,0-33.367-18.685-33.367-34.773ZM501.7,518.488A42.953,42.953,0,0,0,497.39,496.6h0a42.758,42.758,0,0,0,18.958,4.412,34.6,34.6,0,0,0,26.807-11.558c-2.265,20.6-2.48,42.953,6.111,59.08-9.294-5-21.477-7.439-36.979-7.439a200.931,200.931,0,0,0-22.2,1.367,34.266,34.266,0,0,0,11.578-23.976Zm45.882-34.675c21.75-28.154,39.42-41.47,56.62-42.583A164.277,164.277,0,0,1,557.642,554c-11.519-12.886-14.624-34.812-10.094-70.19Zm7.3-162.052c-9.176,8.083-23.117,12.027-42.543,12.027a219.791,219.791,0,0,1-27.666-1.952c-28.584-22.1-41.88-39.966-42.641-57.362A164.336,164.336,0,0,1,554.85,321.859Zm-77.3,9.118h-2.284c-16.576,0-30.2,13.081-35.144,27.334h-.2c-4.862-14.311-18.49-27.334-35.144-27.334h-2.284c16.186-12.964,32.176-28.681,37.467-46.136,5.389,17.572,21.379,33.269,37.545,46.234Zm-82,.879a217.588,217.588,0,0,1-27.705,1.952c-20.032,0-34.207-4.2-43.344-12.769A164.239,164.239,0,0,1,438.212,274.3c-.976,22.062-22.453,42-42.6,57.616ZM270.81,436.974c-90.476-33.191-94.556-129.817-97.622-200.456-1.347-31.766-2.441-58.046-10.289-73.8,15.756,7.81,42.114,9.059,74,10.5,70.756,3.2,167.4,7.575,200.612,97.5A168.67,168.67,0,0,0,270.83,437.072Zm-3.9,2.421c-61.541,24-82.881,77.023-91.237,130.813L44.6,439.3,175.415,308.485c8.259,53.907,29.6,107.013,91.432,131.008ZM237.151,169.667c-32.606-1.464-61.228-2.772-75.715-11.968A394.508,394.508,0,0,1,435.186,43.54L303.846,174.88C280.865,171.639,257.924,170.6,237.151,169.667Zm-67.515,67.105c.879,20.911,1.952,44.066,5.115,67.2l-131.2,131.2A394.528,394.528,0,0,1,157.9,161.232C167.058,175.72,168.269,204.264,169.635,236.772Zm5.311,338.044c-3.28,23.039-4.334,46.058-5.272,66.89-1.464,32.488-2.772,60.994-11.968,75.461A394.508,394.508,0,0,1,43.548,443.417Zm61.794,130.325c-31.825,1.425-58.143,2.616-73.919,10.465,7.81-15.737,9.059-42,10.5-73.743,3.182-70.483,7.556-166.757,97.5-199.968A168.709,168.709,0,0,0,437.587,607.851C404.161,697.643,307.477,701.978,236.741,705.141Zm66.871-1.523L435.185,835.075A394.508,394.508,0,0,1,161.24,720.7c14.507-9.157,43.09-10.446,75.676-11.91C257.729,707.874,280.631,706.781,303.611,703.618Zm20.93-146.139c9.137-8.591,23.332-12.788,43.344-12.788a220.964,220.964,0,0,1,27.705,1.952c20.169,15.62,41.645,35.515,42.641,57.4A164.258,164.258,0,0,1,324.541,557.478Zm78.1-9.762h2.284c16.6,0,30.224-13.1,35.144-27.334h.2c4.862,14.311,18.49,27.334,35.144,27.334h2.284c-16.186,12.964-32.176,28.662-37.467,46.136-5.408-17.572-21.4-33.269-37.584-46.234Zm82-.9a220.975,220.975,0,0,1,27.7-1.952c19.427,0,33.387,3.9,42.544,12.047a164.219,164.219,0,0,1-112.87,47.346C443,582.216,464.452,562.3,484.6,546.681ZM607.819,442.012c89.812,33.465,94.2,129.739,97.368,200.183,1.425,31.707,2.616,57.929,10.445,73.685-15.619-7.81-41.86-9.1-73.489-10.582-70.17-3.28-165.957-7.81-199.285-97.446A168.709,168.709,0,0,0,607.78,441.914Zm34.148,266.936c32.391,1.5,60.8,2.851,75.247,12.047a394.509,394.509,0,0,1-273.75,114.178L575,703.461c23.058,3.319,46.116,4.413,66.929,5.389Zm66.773-67.007c-.937-20.852-1.952-43.91-5.252-66.988L835,443.417A394.508,394.508,0,0,1,720.67,717.343C711.572,702.876,710.263,674.409,708.741,641.94Zm-5.057-338.083-.1.1c3.3-23.078,4.354-46.175,5.291-67.046,1.464-32.488,2.772-61.013,11.968-75.481a394.527,394.527,0,0,1,114.217,273.75ZM570.665,175.934c-53.575,8.454-106.368,29.911-130.442,91.452-23.956-62.146-77.551-83.505-131.887-91.764L439.305,44.575ZM437.47,3.671V39.85A398.1,398.1,0,0,0,158.448,155.531c-.508-.43-.976-.84-1.425-1.289h0l-24.249-24.23A434.22,434.22,0,0,1,437.47,3.671ZM130.235,132.59l24.152,24.171h0a18.35,18.35,0,0,1,1.289,1.445A398.139,398.139,0,0,0,39.818,437.4H3.679A434.279,434.279,0,0,1,130.236,132.59ZM3.679,441.074H39.857a398.179,398.179,0,0,0,115.682,279.1q-.644.742-1.289,1.406l-24.23,24.249A434.22,434.22,0,0,1,3.679,441.133ZM437.47,874.924A434.28,434.28,0,0,1,132.6,748.367l24.171-24.152h0a18.35,18.35,0,0,1,1.445-1.289,398.14,398.14,0,0,0,279.2,115.857Zm1.835-40.9L308.121,702.876c54.317-8.317,107.95-29.657,132.082-91.764,23.9,61.638,76.711,83.115,130.305,91.569Zm22.746,40.337h-.39c-3.2.156-6.384.273-9.586.371h-1.64c-3.085,0-6.189.1-9.294.117v-36.1A398.178,398.178,0,0,0,720.162,723.083c.508.43,1,.859,1.445,1.308l24.23,24.191A434.318,434.318,0,0,1,462.051,874.358ZM874.814,450.446v1.289c0,3.319-.215,6.638-.371,9.938h0A434.4,434.4,0,0,1,748.375,746l-24.191-24.19h0c-.43-.449-.84-.976-1.25-1.464a398.139,398.139,0,0,0,115.838-279.2h36.179C874.912,444.237,874.892,447.342,874.814,450.446Zm-36.061-12.984A398.3,398.3,0,0,0,723.091,158.441q.586-.7,1.23-1.347l24.269-24.327A434.142,434.142,0,0,1,874.931,437.345Z" transform="translate(0.009 0.001)"/></g></g></svg>