<svg xmlns="http://www.w3.org/2000/svg" width="1070.56" height="1070.56" viewBox="0 0 1070.56 1070.56"><defs><style>.a{opacity:0.05;}.b{fill:#fff;}</style></defs><g class="a" transform="matrix(0.966, 0.259, -0.259, 0.966, 226.236, 0)"><path class="b" d="M874.108,437.054C874.108,196.012,678.1,0,437.054,0S0,196.012,0,437.054,196.012,874.108,437.054,874.108,874.108,678.1,874.108,437.054Zm-5.3,0a428.763,428.763,0,0,1-56.605,213.521l-30.064-17.35A397.693,397.693,0,0,0,814.96,315.368a406.627,406.627,0,0,0,16.423-53.983,429.107,429.107,0,0,1,37.428,175.669ZM579.587,737.085A274.92,274.92,0,0,0,609.916,644.8a344.345,344.345,0,0,0,77.875,9.35c30.912,0,59.545-4.794,83.808-14.224A392.025,392.025,0,0,1,525.922,818.483a576.709,576.709,0,0,0,53.691-81.478Zm31.1-97.556a311.4,311.4,0,0,0-4.927-105.052,312.561,312.561,0,0,0,93.53-48.314c43.334,46.248,71.094,99.225,76.418,146.4C732.185,651.608,672.3,654.045,610.684,639.529Zm92.708-156.651a275.161,275.161,0,0,0,64.763-72.313l-2.278-1.377,2.278,1.377a578.2,578.2,0,0,0,43.732-87.411A390.726,390.726,0,0,1,780.1,625.305c-7.2-46.434-34.752-97.715-76.683-142.427ZM827.648,253.226c-4.4,22.515-19.151,80.63-64.022,154.505h0c-34.779,56.949-91.808,100.231-160.677,122.057l-63.571-36.712c137.208-40.765,231.692-161.048,241.6-251.637L812.152,223.4q8.344,14.621,15.522,29.826ZM533.074,489.421l-93.371-53.9V327.658c65.717-64.1,158.267-102.35,247.849-102.35,33.322,0,63.757,5.589,88.152,16.211C765.507,331.34,670.52,450.775,533.074,489.421ZM809.53,218.9l-31.15,18.038c-25.164-11.072-56.526-16.926-90.828-16.926-89.265,0-181.417,37.428-247.849,100.337V247.028c53.321-48.765,119.382-76.524,186.106-78.14h0c86.007-1.907,143.7,14.251,165.577,21.773Q800.975,204.382,809.53,218.9ZM625.623,163.591a274.788,274.788,0,0,0-95.092,19.84C512.7,124.494,481.872,74.855,445,45.48A392.4,392.4,0,0,1,722.888,169.312a577.929,577.929,0,0,0-97.264-5.748ZM439.7,5.3A431.413,431.413,0,0,1,786.194,183.351a407.926,407.926,0,0,0-54.883-12.714A397.772,397.772,0,0,0,439.7,40.1Zm-2.649,40.659c38.2,28.21,70.326,78.855,88.55,139.46a311.66,311.66,0,0,0-88.55,56.843,312.346,312.346,0,0,0-88.55-56.843c18.25-60.6,50.354-111.25,88.55-139.433ZM151.221,169.312A392.4,392.4,0,0,1,429.108,45.48c-36.871,29.375-67.7,79.014-85.53,137.924a275.875,275.875,0,0,0-95.092-19.84v0a577.44,577.44,0,0,0-97.264,5.748ZM434.405,5.3V40.1A397.9,397.9,0,0,0,142.771,170.61a410.784,410.784,0,0,0-54.857,12.741A431.386,431.386,0,0,1,434.405,5.3ZM82.722,190.715c21.879-7.523,79.464-23.707,165.63-21.773h0c66.724,1.642,132.758,29.4,186.079,78.166v73.4C368,257.571,275.847,220.143,186.609,220.143c-34.435,0-65.691,5.854-90.854,16.926L64.6,218.9C70.273,209.256,76.339,199.8,82.722,190.715Zm351.683,136.97V435.518l-93.4,53.9C203.588,450.775,108.6,331.34,98.4,241.519c24.4-10.6,54.83-16.211,88.179-16.211C276.139,225.308,368.688,263.557,434.405,327.685ZM61.929,223.454l31.177,18.065c9.907,90.51,104.39,210.793,241.6,251.637l-63.572,36.686c-68.869-21.8-125.925-65.108-160.7-122.084h0C65.558,333.75,50.8,275.715,46.434,253.2Q53.612,238.022,61.929,223.454Zm201.5,416.076c-61.611,14.516-121.5,12-165.021-6.966,5.3-47.175,33.084-100.311,76.471-146.4a312.056,312.056,0,0,0,93.477,48.288,311.555,311.555,0,0,0-4.927,105.078ZM94.059,625.358a390.673,390.673,0,0,1-31.892-302.2,578.635,578.635,0,0,0,43.785,87.411h0a275.106,275.106,0,0,0,64.763,72.313C128.759,527.591,101.211,578.9,94.059,625.358ZM5.3,437.054A429.107,429.107,0,0,1,42.725,261.279a404.37,404.37,0,0,0,16.4,53.93A397.693,397.693,0,0,0,91.967,633.225L61.9,650.548A428.764,428.764,0,0,1,5.3,437.054Zm59.254,218.1,30.064-17.323A396.818,396.818,0,0,0,353.537,825.211a406.089,406.089,0,0,0,38.646,41.3A432.525,432.525,0,0,1,64.552,655.157ZM434.405,868.811q-16.846,0-33.4-1.483c-17.3-15.019-60.313-56.9-101.873-132.732l-4.635,2.649a575.054,575.054,0,0,0,53.718,81.239,392.024,392.024,0,0,1-245.73-178.689c24.263,9.456,52.976,14.251,83.808,14.251a344.531,344.531,0,0,0,77.9-9.35,274.311,274.311,0,0,0,30.3,92.285l4.635-2.649c-31.918-58.592-40.871-129.659-25.323-200.2l63.572-36.686c-33.322,139.433,23.6,281.3,97.026,335.234ZM343.683,494l93.371-53.9L530.425,494C565.707,632.378,509.738,774.38,437.054,828.1,364.371,774.354,308.4,632.351,343.683,494ZM439.7,868.811v-36.13c73.425-53.85,130.348-195.8,97.053-335.022l63.571,36.686c15.549,70.538,6.569,141.632-25.376,200.25h0C533.418,810.431,490.4,852.282,473.1,867.3Q456.576,868.811,439.7,868.811Zm42.249-2.3a406.342,406.342,0,0,0,38.646-41.3A397.322,397.322,0,0,0,779.493,637.834l30.064,17.35a432.5,432.5,0,0,1-327.473,211.3Z"/></g></svg>