<svg xmlns="http://www.w3.org/2000/svg" width="1185.828" height="1185.829" viewBox="0 0 1185.828 1185.829"><defs><style>.a{opacity:0.05;}.b{fill:#fff;}</style></defs><g class="a" transform="translate(0.002 592.919) rotate(-45)"><g transform="translate(-0.001 -0.001)"><path class="b" d="M419.249,838.5A419.248,419.248,0,0,0,715.7,122.794c-163.727-163.728-429.182-163.727-592.91,0s-163.727,429.182,0,592.91A416.49,416.49,0,0,0,419.249,838.5Zm-1.733-5.963C305.452,831,215.105,740.29,214.023,628.221a210.559,210.559,0,0,0,33.54-3.093A171.556,171.556,0,0,0,417.442,794.094ZM210.557,212.625a213.966,213.966,0,0,0,3.5,34.993,171.91,171.91,0,0,0-169.693,169.9l-38.18.112c.7-112.683,91.689-203.957,204.369-205ZM87.577,250.376A374.174,374.174,0,0,1,251.177,87a208.264,208.264,0,0,0-40.621,122.122A208.413,208.413,0,0,0,87.577,250.376ZM47.851,419.249A168.426,168.426,0,0,1,214.787,251.1a213.109,213.109,0,0,0,46.08,95.943,173.923,173.923,0,0,0-.131,144.091,212.158,212.158,0,0,0-46.844,98.756v-2.441C122.347,586.277,47.851,510.85,47.851,419.249ZM297.537,299.81c12.261,13.23,15.671,36.018,10.882,73.135-16.136,20.962-36.968,43.3-59.775,43.956a169.954,169.954,0,0,1,48.95-117.091ZM280.767,313.9a157.675,157.675,0,0,1-25.732-58.751,155.066,155.066,0,0,1,58.136,26.217A175.636,175.636,0,0,0,280.785,313.9Zm275.9-1.36a175.771,175.771,0,0,0-30.8-30.782,169.713,169.713,0,0,1,55.9-25.6,172.8,172.8,0,0,1-25.08,56.384Zm29.012-57.26a164.774,164.774,0,0,1,35.739-4.1,222.741,222.741,0,0,1-45.2,92.924A173.775,173.775,0,0,0,559,315.462a176.476,176.476,0,0,0,26.683-60.185ZM589.8,416.957c-23.031-.354-44.049-22.9-60.3-44.012-3.41-26.217-4.491-56.757,11.18-73.378A170.029,170.029,0,0,1,589.8,416.92Zm-48.6,121.47c-12.913-13.043-16.546-36.055-11.683-73.974,16.248-21.111,37.266-43.639,60.3-43.974A169.991,169.991,0,0,1,541.2,538.39Zm16.062-13.192a161.811,161.811,0,0,1,25.956,57.987,155.867,155.867,0,0,1-58.546-25.583,175.15,175.15,0,0,0,32.59-32.44ZM530.378,379.691c13.49,16.9,29.906,33.689,48.148,39.018-18.261,5.329-34.658,22.118-48.148,39.018A35.217,35.217,0,0,0,521.4,431.64a43.937,43.937,0,0,0-19.546-12.931,43.713,43.713,0,0,0,19.528-12.931,35.142,35.142,0,0,0,9-26.124ZM518.751,403.5c-7.1,8.18-17.963,13.472-27.689,13.472h-44.72a27.3,27.3,0,0,0-6.764-16.3L471.255,369h0A38.31,38.31,0,0,1,497.509,358.8a31.826,31.826,0,0,1,26.236,12.335l2.385,3.149c.168,1.323.354,2.627.54,3.913a31.546,31.546,0,0,1-7.919,25.267ZM491.062,420.46c9.727,0,20.5,5.273,27.689,13.472a31.49,31.49,0,0,1,7.956,25.248c-.186,1.286-.373,2.609-.54,3.932l-2.385,3.149a31.863,31.863,0,0,1-26.273,12.279A38.292,38.292,0,0,1,471.161,468.4h0l-31.677-31.677a27.39,27.39,0,0,0,6.764-16.3Zm-22.229,50.552c6.8,6.876,10.714,18.242,9.95,28.975a31.49,31.49,0,0,1-12.242,23.5l-3.149,2.4-3.913.522a29.606,29.606,0,0,1-4.248.3c-19.416,0-34.471-19.3-34.471-35.925v-44.72a27.186,27.186,0,0,0,16.285-6.764Zm13.435,29.236a43.9,43.9,0,0,0-4.677-22.956,43.714,43.714,0,0,0,19.919,4.733,35.4,35.4,0,0,0,27.782-12.186c-2.4,21.484-2.665,44.925,6.466,61.6-9.615-5.273-22.36-7.845-38.44-7.845a214.5,214.5,0,0,0-23.291,1.435,35.123,35.123,0,0,0,12.242-24.819Zm43.08-132.687a35.4,35.4,0,0,0-27.838-12.242,43.956,43.956,0,0,0-19.956,4.77,43.713,43.713,0,0,0,4.658-22.956,35.031,35.031,0,0,0-12.186-24.8,214.474,214.474,0,0,0,23.292,1.435c16.136,0,28.826-2.59,38.44-7.863-9.074,16.677-8.814,40.117-6.41,61.62Zm-46.583-30.13c.764,10.714-3.13,22.062-9.913,28.937l-31.826,31.826a27.167,27.167,0,0,0-16.285-6.745V346.579c0-16.621,15.056-35.944,34.471-35.944a32.791,32.791,0,0,1,4.248.3c1.323.2,2.627.373,3.913.54l3.149,2.4a31.453,31.453,0,0,1,12.354,23.515Zm-35.906,81.278a17.8,17.8,0,1,1,.019-.037Zm-194.2,1.77c22.826.652,43.658,22.993,59.813,43.974,4.826,37.676,1.267,60.577-11.441,73.713A169.972,169.972,0,0,1,248.68,420.442Zm65.775,137.7a158.1,158.1,0,0,1-59.067,25.49,155.756,155.756,0,0,1,26.236-57.931,175.746,175.746,0,0,0,32.85,32.4Zm2.18-152.383a43.676,43.676,0,0,0,19.528,12.913,43.882,43.882,0,0,0-19.528,12.931,35.161,35.161,0,0,0-9,26.087c-13.49-16.9-29.813-33.689-48.148-39.018,18.242-5.329,34.639-22.118,48.148-39.018a35.2,35.2,0,0,0,9.018,26.068Zm30.316,11.18c-9.727,0-20.5-5.292-27.689-13.472a31.546,31.546,0,0,1-7.938-25.248c.186-1.286.354-2.609.54-3.913l2.385-3.149c5.981-7.956,15.279-12.335,26.236-12.335a38.31,38.31,0,0,1,26.31,10.081l31.677,31.676a27.354,27.354,0,0,0-6.764,16.3Zm51.54,19.77L366.8,468.422a38.31,38.31,0,0,1-26.31,10.118,31.863,31.863,0,0,1-26.236-12.317l-2.385-3.149c-.186-1.323-.354-2.646-.54-3.932a31.546,31.546,0,0,1,7.956-25.267c7.1-8.18,17.962-13.453,27.689-13.453h44.72a27.3,27.3,0,0,0,6.8,16.285Zm-85.806,33.093a35.4,35.4,0,0,0,27.8,12.186,43.713,43.713,0,0,0,19.956-4.77,43.9,43.9,0,0,0-4.677,22.956,35.179,35.179,0,0,0,12.186,24.819,214.475,214.475,0,0,0-23.217-1.435c-16.136,0-28.826,2.571-38.44,7.845C315.331,514.763,315.071,491.322,312.667,469.838ZM359.25,499.95c-.764-10.789,3.186-22.211,10.043-29.086h0l31.677-31.676a27.41,27.41,0,0,0,16.323,6.764v44.72c0,16.621-15.074,35.925-34.49,35.925a29.8,29.8,0,0,1-4.248-.3l-4.025-.466-3.149-2.385a31.527,31.527,0,0,1-12.149-23.5Zm58.043-108.539a27.168,27.168,0,0,0-16.323,6.764L369.293,366.5h0c-6.857-6.876-10.807-18.316-10.043-29.105a31.49,31.49,0,0,1,12.223-23.478l3.168-2.4c1.286-.168,2.59-.335,3.913-.54a32.792,32.792,0,0,1,4.248-.3c19.416,0,34.49,19.323,34.49,35.944ZM355.8,337.132a43.9,43.9,0,0,0,4.677,22.956,43.956,43.956,0,0,0-19.956-4.77,35.4,35.4,0,0,0-27.8,12.186c2.4-21.466,2.683-44.925-6.447-61.6,9.615,5.273,22.36,7.845,38.44,7.845a210.415,210.415,0,0,0,23.292-1.435,35.124,35.124,0,0,0-12.261,24.819ZM217.246,590.9h1.1a183.511,183.511,0,0,0,32.571-2.87,185.7,185.7,0,0,0-3.13,33.54,203.913,203.913,0,0,1-33.763,3.149,198.291,198.291,0,0,1,3.223-33.819Zm.671-3.5a208.692,208.692,0,0,1,44.44-92.794A173.586,173.586,0,0,0,279.5,522.794a158.96,158.96,0,0,0-27.745,61.583A181.06,181.06,0,0,1,218.01,587.4Zm36.707,0a161.811,161.811,0,0,0,62.794-27,174,174,0,0,0,27,16.062,206.065,206.065,0,0,1-93.166,44.5,180.741,180.741,0,0,1,3.373-33.633Zm44.906-46.676c9.428-9.13,24.223-13.565,45.13-13.565a226,226,0,0,1,28.565,2.031c21.242,16.341,43.9,37.471,44.03,60.633a170.01,170.01,0,0,1-117.725-49.173ZM379.97,530.1c.932.093,1.863.13,2.814.13,17.292,0,31.434-13.844,36.223-28.788,4.789,14.907,18.95,28.788,36.223,28.788a20.445,20.445,0,0,0,2.814-.13c-16.919,13.509-33.689,29.925-39.037,48.186-5.348-18.335-22.118-34.751-39.037-48.26Zm84.8-.857a226.546,226.546,0,0,1,28.583-2.087c21.111,0,35.962,4.509,45.372,13.789a169.991,169.991,0,0,1-117.967,48.949c.13-23.236,22.714-44.384,44.012-60.707ZM521.732,559.8a161.382,161.382,0,0,0,62.235,27.018,169.565,169.565,0,0,1,3.391,34.509,218.661,218.661,0,0,1-93.166-45,173.724,173.724,0,0,0,27.54-16.528Zm65.216,24.223a165.351,165.351,0,0,0-27.54-61.695,174,174,0,0,0,17.347-29.105,203.325,203.325,0,0,1,45.6,94.135,194.494,194.494,0,0,1-35.4-3.391Zm36,6.894a214.006,214.006,0,0,1,3.13,34.7,190.671,190.671,0,0,1-35.2-3.578,171.67,171.67,0,0,0-3.168-34.453A199.379,199.379,0,0,0,623,590.861Zm2.87-3.5a206.829,206.829,0,0,0-46.974-97.154l-1.174,1.006A173.886,173.886,0,0,0,577.8,347.6a226.357,226.357,0,0,0,47.123-96.427C716.338,252.519,790.61,327.8,790.61,419.3c.056,91.079-73.769,166.246-164.737,168.053Zm-3.727-339.721A168.817,168.817,0,0,0,586.5,251.55a205.326,205.326,0,0,0,4.323-35.4,206.311,206.311,0,0,1,35.254-3.522,195.9,195.9,0,0,1-3.932,35.012Zm-39.391,4.7A173.643,173.643,0,0,0,522.98,279.5a174.725,174.725,0,0,0-28.639-17.31A206.233,206.233,0,0,1,587.3,216.743a199.587,199.587,0,0,1-4.547,35.589Zm-44.627,44.72c-9.447,8.907-24.093,13.248-44.72,13.248a223.192,223.192,0,0,1-28.583-2.106c-20.869-16.062-43.136-36.782-43.974-59.5a169.972,169.972,0,0,1,117.333,48.279ZM457.95,307.394c-.932,0-1.863-.13-2.795-.13-17.292,0-31.434,13.844-36.223,28.788-4.789-14.907-18.931-28.788-36.223-28.788a20.455,20.455,0,0,0-2.814.13c16.919-13.509,33.708-29.906,39.13-48.167,5.31,18.186,22.1,34.6,39,48.092Zm-84.781.857a223.071,223.071,0,0,1-28.453,2.012c-20.5,0-35.068-4.267-44.515-13.043a169.935,169.935,0,0,1,117.073-48.6c-.894,22.77-23.161,43.49-44.03,59.552ZM316,279.22a158.01,158.01,0,0,0-61.769-27.708,182.029,182.029,0,0,1-3.2-34.9A206.289,206.289,0,0,1,344.9,261.929a173.135,173.135,0,0,0-28.826,17.217ZM251.27,254.457a161.439,161.439,0,0,0,27.316,62.31,173.645,173.645,0,0,0-16.062,26.72,209.438,209.438,0,0,1-44.161-92.44,179.749,179.749,0,0,1,32.981,3.335Zm-33.726-6.764a209.593,209.593,0,0,1-3.559-34.975,207.631,207.631,0,0,1,33.54,3.224,184.471,184.471,0,0,0,2.981,34.807,186.577,186.577,0,0,0-32.888-3.13ZM44.255,421.075a171.575,171.575,0,0,0,169.3,169.879,200.791,200.791,0,0,0-3.168,33.857C98.3,623.656,7.636,533.2,6.225,421.112Zm166.3,207.164v.484h0a208.525,208.525,0,0,0,40.6,121.619A374.136,374.136,0,0,1,87.577,586.948a208.561,208.561,0,0,0,122.979,41.291ZM251.14,624.9h-2.4a209.792,209.792,0,0,0,99.222-46.919,173.9,173.9,0,0,0,142.805,0A222.033,222.033,0,0,0,587.4,624.923c-1.286,91.433-76.639,165.836-168.128,165.836S252.407,716.3,251.121,624.9Zm169.879,169.19A171.538,171.538,0,0,0,590.861,625.575a194.679,194.679,0,0,0,35.217,3.522c-1.551,112.348-92.72,202.8-205.077,203.456ZM629.712,628.258A208.486,208.486,0,0,0,749.244,589.5,374.9,374.9,0,0,1,590.4,748.592a208.394,208.394,0,0,0,39.242-120.352ZM450.46,833.839a209.661,209.661,0,0,0,135.11-78.93A378.255,378.255,0,0,0,755.43,584.843,209.922,209.922,0,0,0,832.7,463.13C811.777,661.612,650.637,818.913,450.46,833.839Zm179.121-209.1a216.918,216.918,0,0,0-3.056-33.931A171.426,171.426,0,0,0,794.094,420.963l39.857-.522C832.859,532.844,741.984,623.686,629.581,624.736ZM794.094,417.479a171.426,171.426,0,0,0-168.389-169.8,197.9,197.9,0,0,0,3.894-35.049c112.414,1.051,203.289,91.918,204.351,204.332ZM590.3,88.77A374.678,374.678,0,0,1,749.169,247.823a208.3,208.3,0,0,0-119.532-38.757A208.3,208.3,0,0,0,590.3,88.77Zm242.12,284.157A209.959,209.959,0,0,0,755.43,252.519,378.255,378.255,0,0,0,585.551,82.435,209.9,209.9,0,0,0,463.559,5.852C656.823,26.423,810.92,179.942,832.423,372.927ZM421.783,4.809C534.176,5.89,625.017,96.748,626.078,209.141a210.555,210.555,0,0,0-35.31,3.41A171.426,171.426,0,0,0,421.112,44.4ZM419.249,46.1h0v1.752A168.631,168.631,0,0,1,587.377,213.2a209.736,209.736,0,0,0-96.483,47.4,173.96,173.96,0,0,0-142.414-.373,209.735,209.735,0,0,0-97.34-47.273A168.612,168.612,0,0,1,419.249,47.833Zm-1.714-1.714A172.1,172.1,0,0,0,247.656,212.308a210.561,210.561,0,0,0-33.54-3.168C215.186,96.8,305.954,5.96,418.3,4.809ZM378.125,5.591a209.847,209.847,0,0,0-122.2,75.222A377.6,377.6,0,0,0,81.224,255.276,209.568,209.568,0,0,0,4.4,391.951C17.628,189.035,177.017,25.361,378.125,5.591ZM81.223,582.085A377.64,377.64,0,0,0,255.91,756.6a209.606,209.606,0,0,0,135.184,77.44C183.11,820.069,16.566,652.463,4.25,444.05A209.568,209.568,0,0,0,81.223,582.085Z" transform="translate(0.001 0.001)"/></g></g></svg>